<svg width="24" height="24" viewBox="0 0 24 24" fill="none" xmlns="http://www.w3.org/2000/svg">
<path d="M18.94 5.41945L13.77 2.42945C12.78 1.85945 11.23 1.85945 10.24 2.42945L5.01996 5.43945C2.94996 6.83945 2.82996 7.04945 2.82996 9.27945V14.7095C2.82996 16.9395 2.94996 17.1595 5.05996 18.5795L10.23 21.5695C10.73 21.8595 11.37 21.9995 12 21.9995C12.63 21.9995 13.27 21.8595 13.76 21.5695L18.98 18.5595C21.05 17.1595 21.17 16.9495 21.17 14.7195V9.27945C21.17 7.04945 21.05 6.83945 18.94 5.41945ZM12 15.2495C10.21 15.2495 8.74996 13.7895 8.74996 11.9995C8.74996 10.2095 10.21 8.74945 12 8.74945C13.79 8.74945 15.25 10.2095 15.25 11.9995C15.25 13.7895 13.79 15.2495 12 15.2495Z" fill="#949494"/>
</svg>
