<svg width="170" height="32" viewBox="0 0 170 32" fill="none" xmlns="http://www.w3.org/2000/svg">
<path d="M42.496 8.17156C41.2621 7.52896 39.8871 7.20402 38.4958 7.22616C37.3953 7.2167 36.3054 7.44131 35.2985 7.88507C34.3364 8.2941 33.4734 8.9047 32.7679 9.6756V8.63709C32.7768 8.47832 32.7542 8.31935 32.7013 8.16937C32.6484 8.01939 32.5662 7.88138 32.4596 7.76332C32.3495 7.64701 32.2158 7.55553 32.0674 7.49501C31.9191 7.43449 31.7595 7.40631 31.5993 7.41237C31.4363 7.40856 31.2742 7.43768 31.1226 7.49798C30.9711 7.55829 30.8333 7.64853 30.7176 7.76332C30.6039 7.87799 30.5147 8.0146 30.4555 8.16483C30.3964 8.31505 30.3684 8.47574 30.3735 8.63709V23.3696C30.3668 23.53 30.394 23.6901 30.4533 23.8394C30.5126 23.9887 30.6026 24.1239 30.7176 24.2362C30.9576 24.4562 31.2738 24.5743 31.5993 24.5656C31.7584 24.574 31.9175 24.5487 32.0661 24.4914C32.2148 24.4342 32.3496 24.3462 32.462 24.2333C32.5743 24.1205 32.6615 23.9852 32.7179 23.8363C32.7743 23.6875 32.7987 23.5284 32.7894 23.3696V14.0946C32.7815 13.2611 33.0319 12.4455 33.5063 11.7598C34.0005 11.0439 34.6792 10.4748 35.4705 10.1125C36.3386 9.70786 37.2871 9.50464 38.2449 9.51803C39.7347 9.44933 41.1927 9.96313 42.3096 10.9505C42.8517 11.5104 43.2702 12.1777 43.5381 12.9093C43.8061 13.6408 43.9175 14.4203 43.8653 15.1976V23.3696C43.8615 23.5275 43.8901 23.6846 43.9493 23.8312C44.0084 23.9777 44.0969 24.1107 44.2094 24.2219C44.3242 24.3355 44.4609 24.4245 44.6113 24.4837C44.7616 24.5428 44.9225 24.5707 45.084 24.5656C45.241 24.5693 45.3972 24.5406 45.5427 24.4815C45.6882 24.4223 45.82 24.334 45.9299 24.2219C46.0433 24.111 46.1329 23.9783 46.1933 23.8318C46.2537 23.6853 46.2836 23.528 46.2812 23.3696V15.2191C46.3215 13.7235 45.9732 12.2429 45.2704 10.9218C44.6403 9.74955 43.6743 8.7919 42.496 8.17156Z" fill="#E60B6A"/>
<path d="M50.6688 7.4123C50.5065 7.40734 50.3449 7.43562 50.1939 7.49541C50.0429 7.55521 49.9058 7.64524 49.7909 7.75997C49.6761 7.8747 49.586 8.0117 49.5261 8.16253C49.4663 8.31337 49.438 8.47484 49.443 8.63702V23.3408C49.4358 23.5036 49.4627 23.666 49.5218 23.8178C49.5809 23.9696 49.6709 24.1075 49.7862 24.2226C49.9015 24.3378 50.0395 24.4278 50.1914 24.4868C50.3434 24.5458 50.5059 24.5727 50.6688 24.5656C50.8283 24.5712 50.9871 24.5435 51.1352 24.4843C51.2834 24.4251 51.4175 24.3357 51.5291 24.2218C51.6401 24.1043 51.7265 23.9659 51.7831 23.8146C51.8398 23.6633 51.8655 23.5022 51.8589 23.3408V8.63702C51.8649 8.47677 51.8389 8.31692 51.7823 8.16687C51.7256 8.01681 51.6396 7.87958 51.5291 7.76324C51.4181 7.64803 51.2843 7.55728 51.1361 7.49684C50.988 7.4364 50.8288 7.4076 50.6688 7.4123Z" fill="#E60B6A"/>
<path d="M61.7873 14.818L68.06 9.13842C68.1831 9.04796 68.2839 8.93061 68.3548 8.79532C68.4256 8.66003 68.4645 8.51036 68.4687 8.35775C68.4373 8.08729 68.3162 7.83512 68.1245 7.64153C68.0307 7.52247 67.9109 7.42638 67.7742 7.3606C67.6376 7.29482 67.4877 7.26107 67.336 7.26194C67.0608 7.25341 66.7923 7.34792 66.5832 7.52694L57.7369 15.5342V1.26725C57.7418 1.10929 57.7152 0.951922 57.6586 0.804351C57.602 0.65678 57.5165 0.521969 57.4071 0.4078C57.2396 0.234813 57.0239 0.116314 56.7879 0.0677856C56.552 0.019257 56.3069 0.0429565 56.0847 0.135788C55.8624 0.22862 55.6734 0.386266 55.5423 0.588126C55.4111 0.789986 55.344 1.02667 55.3496 1.26725V23.3695C55.3424 23.5288 55.368 23.6879 55.4247 23.8369C55.4814 23.986 55.5681 24.1219 55.6794 24.2361C55.8473 24.4096 56.0637 24.5284 56.3004 24.5767C56.537 24.625 56.7827 24.6007 57.0053 24.507C57.2278 24.4132 57.4168 24.2544 57.5474 24.0514C57.6779 23.8484 57.744 23.6107 57.7369 23.3695V18.4492L60.0883 16.3005L66.5402 24.229C66.6358 24.3643 66.7625 24.4747 66.9098 24.5507C67.057 24.6267 67.2204 24.6663 67.3862 24.6659C67.6608 24.6571 67.9251 24.5591 68.1389 24.3866C68.271 24.2879 68.3791 24.1606 68.4548 24.0142C68.5306 23.8678 68.5721 23.7062 68.5762 23.5414C68.5767 23.276 68.4768 23.0202 68.2966 22.8252L61.7873 14.818Z" fill="#E60B6A"/>
<path d="M81.9246 8.40067C80.5652 7.65334 79.0387 7.26147 77.4871 7.26147C75.9354 7.26147 74.409 7.65334 73.0495 8.40067C71.7351 9.1457 70.6493 10.2354 69.9096 11.552C69.1388 12.9091 68.7429 14.4466 68.7625 16.0068C68.7354 17.5462 69.1084 19.0663 69.845 20.4187C70.5576 21.7183 71.6077 22.802 72.8846 23.5557C74.188 24.3201 75.6747 24.7162 77.186 24.7016C78.4826 24.7175 79.764 24.4202 80.9209 23.835C82.0272 23.2826 82.9838 22.4719 83.7096 21.4715V23.348C83.7044 23.5089 83.7329 23.6692 83.7934 23.8185C83.8539 23.9677 83.945 24.1027 84.0609 24.2146C84.2983 24.4342 84.6121 24.5524 84.9355 24.5441C85.0981 24.5496 85.2602 24.522 85.4118 24.4629C85.5634 24.4038 85.7014 24.3145 85.8173 24.2003C85.9297 24.0891 86.0182 23.9562 86.0774 23.8096C86.1366 23.6631 86.1651 23.506 86.1614 23.348V16.0068C86.181 14.4466 85.7852 12.9091 85.0144 11.552C84.2884 10.2419 83.2206 9.1529 81.9246 8.40067ZM82.9927 19.3444C82.4618 20.3146 81.6761 21.1218 80.7202 21.6792C79.7391 22.2485 78.6215 22.5406 77.4871 22.5243C76.3482 22.5389 75.2265 22.247 74.2396 21.6792C73.2546 21.1333 72.4406 20.325 71.8882 19.3444C71.3421 18.3165 71.0566 17.1705 71.0566 16.0068C71.0566 14.8431 71.3421 13.6972 71.8882 12.6693C72.4332 11.6824 73.2331 10.8596 74.2046 10.2866C75.1761 9.71365 76.2836 9.41141 77.4118 9.41141C78.5399 9.41141 79.6475 9.71365 80.619 10.2866C81.5905 10.8596 82.3904 11.6824 82.9354 12.6693C83.4815 13.6972 83.767 14.8431 83.767 16.0068C83.767 17.1705 83.4815 18.3165 82.9354 19.3444H82.9927Z" fill="#E60B6A"/>
<path d="M101.474 8.17146C100.24 7.52886 98.8655 7.20392 97.4742 7.22606C96.3714 7.21668 95.2792 7.44126 94.2697 7.88497C93.3122 8.30425 92.4564 8.92472 91.7606 9.70415V1.30299C91.7664 1.14168 91.7403 0.980815 91.6837 0.829632C91.6271 0.678448 91.5412 0.539932 91.4308 0.422048C91.3193 0.308126 91.1851 0.218712 91.037 0.159517C90.8889 0.100322 90.73 0.0726491 90.5706 0.0782673C90.4077 0.0711599 90.2451 0.097974 90.0932 0.157007C89.9412 0.21604 89.8032 0.306002 89.6879 0.421177C89.5726 0.536351 89.4826 0.674222 89.4235 0.826029C89.3644 0.977836 89.3376 1.14026 89.3447 1.30299V23.3695C89.3381 23.5299 89.3653 23.69 89.4245 23.8393C89.4838 23.9886 89.5739 24.1238 89.6888 24.2361C89.928 24.4574 90.2447 24.5758 90.5706 24.5655C90.7287 24.5705 90.8862 24.5439 91.0339 24.4874C91.1816 24.4308 91.3166 24.3454 91.4308 24.2361C91.5421 24.1218 91.6288 23.9859 91.6855 23.8369C91.7422 23.6878 91.7678 23.5288 91.7606 23.3695V14.0945C91.7494 13.2605 92.0001 12.4439 92.4775 11.7597C92.9706 11.0455 93.6464 10.4767 94.4346 10.1124C95.3052 9.70765 96.256 9.50445 97.2161 9.51793C98.7035 9.45112 100.159 9.96479 101.274 10.9504C101.817 11.5093 102.237 12.1764 102.505 12.9082C102.773 13.64 102.883 14.4201 102.829 15.1975V23.3695C102.826 23.5274 102.854 23.6845 102.913 23.8311C102.972 23.9776 103.061 24.1106 103.173 24.2218C103.289 24.3359 103.427 24.4253 103.579 24.4844C103.73 24.5435 103.893 24.5711 104.055 24.5655C104.213 24.5675 104.369 24.5378 104.515 24.4783C104.66 24.4188 104.793 24.3306 104.904 24.2191C105.015 24.1075 105.102 23.9749 105.161 23.8289C105.219 23.683 105.248 23.5267 105.245 23.3695V15.219C105.285 13.7243 104.939 12.2446 104.242 10.9217C103.613 9.75048 102.65 8.79295 101.474 8.17146Z" fill="#E60B6A"/>
<path d="M122.07 8.42213C122.064 8.21538 121.991 8.0162 121.862 7.85468C121.732 7.69317 121.554 7.5781 121.353 7.52687C121.176 7.4435 120.983 7.39951 120.787 7.39795C120.575 7.40276 120.369 7.47468 120.201 7.60337C120.032 7.73206 119.908 7.91089 119.848 8.11416L114.012 21.006L107.89 8.11416C107.824 7.91861 107.698 7.74919 107.529 7.63064C107.36 7.51209 107.157 7.45063 106.951 7.45525C106.755 7.45199 106.56 7.49622 106.385 7.58417C106.178 7.63952 105.996 7.76158 105.866 7.93131C105.737 8.10104 105.667 8.30888 105.668 8.5224C105.666 8.71765 105.708 8.91081 105.79 9.08821L112.822 23.4984L109.718 30.3668C109.634 30.5437 109.59 30.7369 109.589 30.9327C109.589 31.1459 109.66 31.3531 109.789 31.5226C109.919 31.6921 110.1 31.8144 110.306 31.8709C110.482 31.9588 110.676 32.0031 110.872 31.9998C111.082 31.9957 111.284 31.9236 111.448 31.7943C111.612 31.665 111.73 31.4857 111.783 31.2836L121.955 8.95929C122.031 8.79021 122.07 8.60722 122.07 8.42213Z" fill="#E60B6A"/>
<path d="M169.557 22.775L163.033 14.7535L169.306 9.07392C169.429 8.98346 169.53 8.86611 169.601 8.73082C169.671 8.59553 169.71 8.44587 169.714 8.29325C169.683 8.02279 169.562 7.77062 169.37 7.57704C169.277 7.45757 169.157 7.36119 169.02 7.29537C168.884 7.22954 168.734 7.19604 168.582 7.19745C168.312 7.21143 168.057 7.32353 167.865 7.51258L158.983 15.4697V1.20992C158.984 1.05268 158.954 0.896762 158.893 0.751535C158.833 0.606308 158.744 0.474762 158.631 0.36479C158.464 0.191295 158.247 0.0725825 158.01 0.0242448C157.774 -0.0240928 157.528 0.000204696 157.306 0.0939469C157.083 0.187689 156.894 0.346492 156.763 0.549495C156.633 0.752499 156.567 0.990209 156.574 1.2314V23.2835C156.569 23.4415 156.596 23.5989 156.652 23.7464C156.709 23.894 156.794 24.0288 156.904 24.143C157.071 24.316 157.287 24.4345 157.523 24.483C157.759 24.5315 158.004 24.5078 158.226 24.415C158.448 24.3222 158.637 24.1645 158.769 23.9627C158.9 23.7608 158.967 23.5241 158.961 23.2835V18.3847L161.313 16.236L167.765 24.1645C167.86 24.3007 167.986 24.4121 168.133 24.4894C168.281 24.5666 168.444 24.6075 168.61 24.6085C168.886 24.5973 169.15 24.4967 169.363 24.3221C169.495 24.2234 169.603 24.0961 169.679 23.9497C169.755 23.8033 169.796 23.6417 169.8 23.4769C169.807 23.2211 169.721 22.9716 169.557 22.775Z" fill="#E60B6A"/>
<path d="M139.318 15.3193C139.378 14.347 139.647 13.3991 140.107 12.5404C140.646 11.5689 141.439 10.7618 142.401 10.2055C143.145 9.77661 143.97 9.50596 144.824 9.41053L143.053 7.5269C142.399 7.70568 141.768 7.963 141.175 8.29324C139.879 9.02496 138.808 10.0975 138.078 11.3944C137.647 12.2729 137.354 13.2127 137.211 14.1805C137.058 15.0162 136.957 15.8605 136.91 16.7087C136.839 17.6464 136.573 18.5589 136.128 19.3874C135.605 20.3583 134.823 21.1663 133.87 21.7222C132.875 22.2767 131.755 22.5677 130.615 22.5677C129.476 22.5677 128.356 22.2767 127.361 21.7222C126.397 21.1679 125.604 20.3604 125.067 19.3874C124.494 18.3536 124.203 17.1881 124.221 16.0068C124.203 14.8297 124.489 13.6678 125.052 12.6335C125.591 11.662 126.384 10.8549 127.346 10.2986C128.341 9.74418 129.462 9.45312 130.601 9.45312C131.74 9.45312 132.861 9.74418 133.856 10.2986C134.807 10.8566 135.588 11.664 136.114 12.6335C136.157 12.7051 136.178 12.7839 136.214 12.8555C136.434 12.1568 136.74 11.488 137.125 10.8644C137.211 10.7314 137.251 10.5735 137.238 10.4153C137.225 10.2572 137.16 10.1078 137.053 9.99066C136.476 9.35326 135.801 8.81171 135.053 8.38635C133.695 7.62467 132.158 7.23665 130.601 7.2619C129.037 7.23728 127.494 7.62513 126.128 8.38635C124.817 9.12259 123.737 10.2088 123.009 11.5234C122.266 12.8984 121.876 14.4368 121.876 15.9997C121.876 17.5626 122.266 19.1009 123.009 20.476C123.742 21.7813 124.821 22.8593 126.128 23.5915C127.502 24.3343 129.039 24.7233 130.601 24.7233C132.163 24.7233 133.701 24.3343 135.074 23.5915C136.027 23.0459 136.861 22.3153 137.526 21.4429C138.202 20.3151 138.687 19.0833 138.96 17.7974C139.175 16.5512 139.354 15.2691 139.354 15.2691L139.318 15.3193Z" fill="#E60B6A"/>
<path d="M153.226 11.4302C152.489 10.1201 151.408 9.03552 150.1 8.2932C149.513 7.96183 148.887 7.70442 148.236 7.52686L146.552 9.41765C147.516 9.529 148.439 9.87097 149.243 10.4146C150.046 10.9582 150.707 11.6874 151.169 12.5403C151.705 13.5775 151.986 14.7281 151.986 15.8958C151.986 17.0634 151.705 18.214 151.169 19.2512C150.643 20.2207 149.862 21.0281 148.91 21.5861C147.915 22.1405 146.795 22.4316 145.656 22.4316C144.516 22.4316 143.396 22.1405 142.401 21.5861C141.439 21.0298 140.646 20.2228 140.107 19.2512C140.057 19.151 140.014 19.0435 139.964 18.9433C139.756 19.6689 139.454 20.3647 139.068 21.0131C138.984 21.1462 138.946 21.3031 138.96 21.4598C138.974 21.6164 139.04 21.764 139.146 21.8797C139.734 22.5222 140.418 23.0684 141.175 23.4984C142.551 24.2362 144.087 24.6224 145.649 24.6224C147.21 24.6224 148.747 24.2362 150.122 23.4984C151.43 22.7654 152.51 21.6845 153.24 20.3757C153.988 19.0033 154.38 17.4656 154.38 15.9029C154.38 14.3403 153.988 12.8026 153.24 11.4302H153.226Z" fill="#E60B6A"/>
<path d="M146.444 5.81519H144.674C144.591 5.81641 144.51 5.83563 144.436 5.87151C144.361 5.90738 144.296 5.95905 144.244 6.02289L144.021 6.28072C143.928 6.38358 143.876 6.51766 143.876 6.65673C143.876 6.79581 143.928 6.92989 144.021 7.03275L145.168 8.2503C145.221 8.30856 145.285 8.35515 145.357 8.38704C145.428 8.41894 145.506 8.43542 145.584 8.43542C145.663 8.43542 145.74 8.41894 145.812 8.38704C145.883 8.35515 145.948 8.30856 146 8.2503L147.075 7.04707C147.157 6.94545 147.201 6.81915 147.201 6.68896C147.201 6.55878 147.157 6.43248 147.075 6.33086L146.846 6.0587C146.8 5.99242 146.74 5.93651 146.671 5.89458C146.602 5.85265 146.525 5.82561 146.444 5.81519Z" fill="#E60B6A"/>
<path d="M51.5359 3.63074H49.7652C49.6834 3.63201 49.6028 3.65053 49.5287 3.68509C49.4546 3.71965 49.3886 3.76947 49.3351 3.83128L49.1128 4.09627C49.0289 4.19674 48.9828 4.32348 48.9828 4.45438C48.9828 4.58528 49.0289 4.71202 49.1128 4.81249L50.2742 6.0945C50.3279 6.15198 50.3928 6.19781 50.4649 6.22914C50.5371 6.26048 50.6149 6.27664 50.6936 6.27664C50.7722 6.27664 50.8501 6.26048 50.9222 6.22914C50.9944 6.19781 51.0593 6.15198 51.113 6.0945L52.1883 4.88411C52.271 4.78305 52.3162 4.65653 52.3162 4.526C52.3162 4.39547 52.271 4.26896 52.1883 4.1679L51.9589 3.89574C51.9137 3.82185 51.852 3.75945 51.7786 3.71346C51.7052 3.66747 51.6222 3.63915 51.5359 3.63074Z" fill="#E60B6A"/>
<path d="M21.5057 24.4295C21.6264 24.4304 21.7462 24.4074 21.8579 24.3616C21.9697 24.3159 22.0712 24.2484 22.1566 24.1631C22.242 24.0778 22.3096 23.9763 22.3554 23.8647C22.4012 23.753 22.4242 23.6334 22.4233 23.5127V11.6737C22.4254 9.17965 21.5814 6.75846 20.0289 4.80528C19.9311 4.6838 19.8036 4.58947 19.6588 4.53136C19.514 4.47325 19.3567 4.4533 19.2019 4.47344C19.0471 4.49357 18.9002 4.55311 18.7751 4.64634C18.65 4.73957 18.551 4.86336 18.4876 5.00582L10.2362 23.1403C10.1724 23.2792 10.1446 23.4319 10.1554 23.5844C10.1663 23.7369 10.2154 23.8841 10.2983 24.0126C10.3812 24.1411 10.4951 24.2466 10.6296 24.3195C10.7641 24.3924 10.9148 24.4302 11.0678 24.4295H21.5057Z" fill="#E60B6A"/>
<path d="M5.86996 2.99322L10.6803 13.1061C10.7528 13.2646 10.8694 13.399 11.0162 13.4932C11.163 13.5874 11.3338 13.6375 11.5083 13.6375C11.6827 13.6375 11.8535 13.5874 12.0003 13.4932C12.1471 13.399 12.2637 13.2646 12.3363 13.1061L16.8957 3.07917C16.9903 2.87316 17.0045 2.63927 16.9356 2.42333C16.8666 2.20739 16.7194 2.02494 16.5229 1.91174C14.9491 1.05921 13.1908 0.603174 11.4006 0.583205C9.61043 0.563236 7.8424 0.979933 6.24991 1.79715C6.04495 1.90962 5.89116 2.09657 5.82043 2.31925C5.74969 2.54192 5.76743 2.78326 5.86996 2.99322Z" fill="#E60B6A"/>
<path d="M0.199369 23.5127C0.198423 23.6327 0.221274 23.7518 0.266604 23.863C0.311934 23.9741 0.378847 24.0753 0.463484 24.1605C0.548122 24.2457 0.648808 24.3133 0.759738 24.3595C0.870669 24.4057 0.989648 24.4294 1.10981 24.4294H7.23919C7.24903 24.3517 7.26582 24.275 7.28937 24.2002L10.1569 17.8403C10.2135 17.7179 10.2428 17.5847 10.2428 17.4499C10.2428 17.3152 10.2135 17.182 10.1569 17.0596L4.26411 4.82672C4.19485 4.69107 4.09286 4.57479 3.96735 4.48839C3.84184 4.40199 3.69676 4.34818 3.54522 4.33184C3.39367 4.31549 3.24044 4.33711 3.09936 4.39475C2.95828 4.4524 2.8338 4.54424 2.73715 4.66199C1.10217 6.63405 0.204946 9.11301 0.199369 11.6737V23.5127Z" fill="#E60B6A"/>
</svg>
